<svg width="11" height="12" viewBox="0 0 11 12" fill="none" xmlns="http://www.w3.org/2000/svg">
<path d="M10.7139 9.7832C10.6431 10.3556 10.612 10.604 10.3477 11.1621L6.28711 12C6.38044 11.3968 6.50483 10.9314 6.70703 10.6523L10.7139 9.7832ZM5.05859 5.83301L6.27148 5.57031V1.73633C6.72356 1.22883 7.00217 1.00095 7.54785 0.712891V5.29297L10.7139 4.60645C10.6431 5.17902 10.6121 5.42717 10.3477 5.98535L7.54785 6.57715V7.86426L10.7139 7.19434C10.6431 7.76684 10.6119 8.01533 10.3477 8.57324L7.54785 9.15137V9.16406L6.27148 9.42773V6.84668L5.05859 7.10254V8.72949L5.03711 8.7334C4.75809 9.22267 4.36502 9.81097 3.98535 10.2803L0 11.0391C0.0357348 10.5263 0.109944 10.2372 0.341797 9.7207L3.7832 8.97461V7.37305L0.59375 8.04785C0.629482 7.53507 0.704656 7.246 0.936523 6.72949L3.7832 6.11035V1.02344C4.23522 0.516026 4.51295 0.288034 5.05859 0V5.83301Z" fill="#005430"/>
</svg>
